<?xml version="1.0" encoding="utf-8"?>
<!-- Generator: Adobe Illustrator 28.1.0, SVG Export Plug-In . SVG Version: 6.00 Build 0)  -->
<svg version="1.1" id="Layer_1" xmlns="http://www.w3.org/2000/svg" xmlns:xlink="http://www.w3.org/1999/xlink" x="0px" y="0px"
	 viewBox="0 0 1672.4 283.5" style="enable-background:new 0 0 1672.4 283.5;" xml:space="preserve">
<style type="text/css">
	.st0{fill:#FDFEFF;}
</style>
<g>
	<path class="st0" d="M714.7,9.9c12-3.3,24-6.6,35.9-9.9c-0.1,20.5,0,41.1,0,61.6c2.6-2.9,5.2-6,8.9-7.7c9.2-4.4,19.8-3.9,29.5-1.9
		c7.6,1.8,15.3,5,20.7,10.8c6.8,8.6,8,20,8.7,30.6c0,36.9,0,73.7,0,110.5c-11.9,0-23.7,0-35.5,0c0-31.6,0-63.2,0-94.9
		c0.1-4.6-0.2-9.3-0.8-13.9c-0.6-3.2-1.3-7-4.6-8.5c-5.2-2.7-11.4-2.6-17.1-1.8c-3.7,0.7-8,2.3-9,6.4c-1.7,5.7-1.5,11.8-1.7,17.8
		c0,31.6,0,63.3,0,94.9c-11.7,0-23.4,0-35.1,0C714.7,139.3,714.7,74.6,714.7,9.9z"/>
	<path class="st0" d="M857.1,3.5c10.6-1.9,21.8,6.2,23.3,16.9c1.2,6.8-2.4,13.7-7.8,17.7c-6.1,4.8-15,5.5-21.9,1.9
		c-5.8-3.2-10.7-9.1-10.9-16C839,14.1,847.4,4.9,857.1,3.5z"/>
	<path class="st0" d="M1649,3.5c11.2-2,23.3,7.3,23.4,18.8c0.6,10.8-9.8,20.3-20.3,19.8c-7.1,0.3-13.8-3.9-17.6-9.7
		c-3.8-5.8-3.7-13.7,0.1-19.4C1637.8,8.1,1643.1,4.3,1649,3.5z"/>
	<path class="st0" d="M125.7,8.9c6.7-0.6,13.4,0.6,20,1.1c6.2,0.9,12.5,1.9,18.5,3.7c6.9,2,13.9,4.1,20.1,7.6
		c1.1,13.7,1.2,27.7-0.8,41.4c-0.6,3.7-1.7,7.2-2.1,10.9c-4.9-1.8-9.3-4.5-14.1-6.6c-5.9-3-12.2-5.3-17.8-8.9c-0.9-1.9-1.3-4-2-6
		C142.9,36.5,134.8,22.2,125.7,8.9z"/>
	<path class="st0" d="M1072.2,22.9c9.2-9,22.2-13.4,35-13.7c8.8-0.1,17.7,0.1,26.4,1.7c3.9,0.7,7.8,1.8,11.2,3.7
		c-0.1,11.4,0,22.7,0,34.1c-9.1-3-18.3-5.9-27.8-6.9c-4.9-0.1-10-0.6-14.5,1.5c-6,2.6-9.6,9-10.3,15.4c-0.5,5.6,2.2,10.9,5.3,15.4
		c5.2,7.6,12.1,13.8,18.9,19.9c10.3,9.5,20.8,18.9,30.3,29.2c7.4,7.7,11.2,18.3,12.1,28.9c1.6,11.7-2.6,23.5-9.8,32.6
		c-4.4,5.5-9.4,10.7-15.7,14c-7,3.9-14.9,5.8-22.8,6.4c-11,0.4-22-0.2-32.9-2c-5.3-1-10.6-2.3-15.5-4.7c0.1-11,0-22,0-33.1
		c11,3.3,22.2,6.4,33.7,7.5c5.9,0.4,12.1,0.4,17.5-2.4c6.1-3.2,9.4-10.2,9.2-16.9c-0.8-7.6-5.6-14.1-10.5-19.6
		c-4.1-4.7-9-8.6-13.5-12.9c-10.9-10-22.2-19.7-32-30.8c-6.5-8.3-9.4-18.8-10.8-29.2C1054.6,46.6,1062,32.7,1072.2,22.9z"/>
	<path class="st0" d="M62.4,28c17-10.3,36.3-17,56.2-18.4c6.8,9.8,13,20.1,17.8,31.1c1.9,5.2,4.5,10.3,5.2,15.9
		c-6.1-0.4-12.1,1.1-18.2,1c-5.2,0.4-10.4,1.2-15.7,1.1c-1.7-0.7-2.8-2.2-4.1-3.4C91.5,44.1,77.4,35.1,62.4,28z"/>
	<path class="st0" d="M276.6,10.4c12.9,0,25.7,0,38.6,0c4.4,12.7,9,25.4,13.5,38.1c3.6,12.8,6.3,25.9,10.1,38.6
		c3.6-12.8,6.1-25.9,9.5-38.7c4.2-12.7,8.5-25.4,12.6-38.1c13,0,26,0,39,0c-12.6,35.7-25.3,71.4-37.9,107.1
		c-1.3,4.1-3.2,8.1-4.1,12.3c-0.1,24.7,0,49.4,0,74.1c-12.9,0-25.8,0-38.8,0c0-23.1,0-46.2,0-69.3c-0.1-2,0.2-4-0.4-5.9
		C304.6,89.2,290.6,49.8,276.6,10.4z"/>
	<path class="st0" d="M190.6,24.1c17.8,9.4,33.4,22.9,45,39.4c-7.4,16.2-16.7,31.8-29.3,44.5c-6.4-9.5-13-18.9-19.4-28.4
		c-0.7-0.9,0-2.1,0.2-3c1.9-6.1,2.6-12.5,3.5-18.7c-0.1-6.3,1.5-12.6,1-18.9C191.9,33.9,190.7,29,190.6,24.1z"/>
	<g>
		<path class="st0" d="M1477.3,31.8c6.4-1.9,13.1-2.1,19.8-1.9c0,7.6,0.1,15.2-0.1,22.8c-4.8,0.1-9.6-0.2-14.4,0.3
			c-3.4,0.4-6.7,2.3-7.7,5.7c5.9,6.3,7.3,15.1,8.6,23.3c0.9,7.3,1.4,14.7,1.5,22.1c0.1,13.5-0.1,27.3-3.1,40.5
			c-1.5,5.7-3.4,11.9-8.4,15.6c-7.8,5.7-17.7,7.9-27.2,8.3c-9,0.1-18,0.1-27-0.1c0,5.3,0,10.5,0,15.8c9.8,0.1,19.7-0.1,29.5,0.1
			c10.6,0.6,21.6,1.1,31.4,5.7c4.7,2.1,7.6,6.6,9.2,11.3c3.7,10.9,3.4,22.7,3.1,34.1c-0.6,8.1-1.6,16.6-6.1,23.5
			c-2.9,4.5-8.2,6.4-13.1,7.6c-5.6,1.2-11.3,2.4-17.1,1.8c-130.8,0-261.7,0-392.5,0c0-11.8,0-23.6,0-35.4c129.2,0,258.4,0,387.6,0
			c2.1-0.2,4.7,0.6,6.2-1.3c2.6-2.7,2.9-6.7,2.6-10.2c-0.2-2.8-1.5-5.8-4.1-7.3c-3.9-2.2-8.5-2.8-12.9-2.9
			c-12.7-0.2-25.6,0.7-38.1-2.2c-4.5-1.1-9.6-2.7-12-7.1c-4.2-7.2-3-15.9-3.2-23.9c7.3-3.7,14.8-6.8,22-10.6
			c-7.2-1.6-14.6-3.1-20.6-7.5c-4.8-3.3-7.3-8.8-9.1-14.2c-3.7-11.9-3.9-24.5-4.2-36.9c0.3-11.5,0.5-23.2,3.5-34.4
			c1.6-5.8,4-12.1,9.1-15.7c6.3-4.2,13.8-6,21.2-7.1c8-1.1,16-1.5,24-1.3c9.1,0.4,18.3,0.6,27.2,2.7c0.2-4.5-0.8-9.4,1.7-13.5
			C1467.2,35.2,1472.4,33.2,1477.3,31.8z M1425,83.6c-3.6,0.7-7.8,2.1-9.1,5.9c-2.5,7.3-2.3,15.2-2.3,22.8
			c0.4,6.3,0.1,13.4,3.9,18.9c4.9,4.2,12,4,18.1,3.8c4.3-0.5,9.9-1.4,11.5-6.1c2.2-6.3,2.2-13.2,2.2-19.8c0.1-6.2-0.1-12.6-1.8-18.6
			c-0.7-2.8-2.7-5.1-5.5-5.9C1436.5,82.7,1430.6,82.6,1425,83.6z"/>
	</g>
	<path class="st0" d="M15.7,77.3C25.2,59.5,39,44,55.7,32.5c15.8,7.2,30.9,16.4,43.4,28.6C89.4,68,79.5,74.5,69.8,81.2
		c-5.5-1.5-11.1-2.8-16.8-3.4c-4-1.2-8.2-0.2-12.1-1.3C32.5,76,24,76,15.7,77.3z"/>
	<path class="st0" d="M581.3,55.2c6.1-3.7,13.4-4.4,20.4-4.8c0.1,12.6,0,25.2,0.1,37.8c-4.7-3.3-11.2-5.8-16.6-2.7
		c-5.9,3.7-7.8,11.2-7.9,17.8c-0.1,33.5,0,67.1-0.1,100.7c-11.7,0-23.3,0-35,0c0-50.3,0-100.6,0-150.9c10.7,0,21.4,0,32.2,0
		c0,2.9,0,5.7,0.1,8.6C576.6,59.3,578.6,56.8,581.3,55.2z"/>
	<path class="st0" d="M652,51.6c7.8-1.8,15.8-1.1,23.7-0.4c5.9,0.6,11.8,1.7,17.5,3.4c0,11.5,0,23,0,34.5
		c-8.4-3.3-17.6-5.7-26.7-4.1c-4.5,1-9.3,3.8-10.1,8.7c-2.9,12.9-2.4,26.2-2.5,39.3c0.1,8.2,0.5,16.4,1.7,24.6c0.6,2.9,1,6,3,8.4
		c3.6,3.7,8.9,5.1,13.9,5.2c7.2,0,14.2-2.2,20.8-4.9c-0.1,11.7,0,23.4,0,35.2c-6.6,2.1-13.5,3.2-20.3,3.7
		c-8.4,0.5-17.2,1.1-25.2-1.9c-6.3-2.2-11.8-6.2-16.3-11c-5-5.4-7.4-12.6-9.2-19.7c-3.8-16.4-4.1-33.5-4-50.3
		c0.3-15.8,1.1-31.9,6.3-47C628.4,63.1,639.7,54.3,652,51.6z"/>
	<path class="st0" d="M907,72.6c5.7-13.4,20.1-21.4,34.2-22c11.3-0.2,22.8,0.8,33.6,4.1c0.1,11.5,0,23,0.1,34.5
		c-8.4-3.4-17.6-5.8-26.7-4.3c-4.3,0.9-9,3.4-10.2,7.9c-2.5,8.7-2.3,17.9-2.7,26.9c0,11.5-0.2,23.1,1.2,34.6c0.6,3.9,1,8,3.2,11.4
		c3.7,4,9.3,5.4,14.6,5.4c7.1-0.1,14-2.4,20.6-5c0,11.7,0,23.5,0,35.2c-8.5,2.6-17.4,3.8-26.3,4c-8.5,0.6-17.4-0.3-24.9-4.5
		c-6.7-3.8-12.8-9.2-16-16.3c-3.1-6.5-4.6-13.6-5.8-20.7c-1.6-10.7-2.3-21.6-2.2-32.5c0-10.4-0.1-20.7,1.1-31
		C901.9,90.9,903.3,81.3,907,72.6z"/>
	<g>
		<path class="st0" d="M1210.2,53.2c8.5-2.3,17.3-2.8,26-2.7c10.6,0.5,21.7,1.9,30.6,8.1c4.2,2.7,7.3,6.8,9.5,11.3
			c4.6,9.3,5.9,19.8,6.5,30.1c0.1,11.3,0,22.6,0,33.8c0,3.8,0.2,7.7-0.3,11.5c-22.7,0.1-45.3,0-67.9,0c0.5,6.9,0.9,14.3,4.4,20.5
			c4,4.6,10.8,4.5,16.3,4.9c11.8,0.4,23.7-1.7,35.1-4.7c0,11.7,0,23.5,0,35.2c-9.4,2.1-19,3.3-28.6,3.8c-9.6,0.3-19.4,1.1-28.8-1.1
			c-7.6-1.7-14.8-5.3-20.3-10.9c-4.4-4.3-7-10.1-8.7-15.9c-2.6-8.8-3.8-17.9-4.5-26.9c-0.6-11-1.2-22-0.6-33
			c0.2-10.9,1.1-21.8,3.4-32.4c1.7-7.4,4-15,9.1-20.8C1196.2,58.5,1203.1,55.1,1210.2,53.2z M1227,84.8c-4.2,0.8-8.5,3.5-9.8,7.8
			c-2.6,7.7-2.6,16.1-2.9,24.1c11,0,22.1,0,33.1,0c0-6.7-0.4-13.4-1.5-20c-0.7-3-1.3-6.3-3.7-8.5C1238.3,84.4,1232.2,83.6,1227,84.8
			z"/>
	</g>
	<path class="st0" d="M1342.8,55.3c6.1-3.8,13.4-4.4,20.4-4.9c0,12.6-0.1,25.2,0,37.8c-4.4-3.1-10.3-5.5-15.6-3.2
		c-5.2,2.5-7.7,8.3-8.4,13.7c-1,7-0.3,14.1-0.5,21.1c0,28,0,56.1,0,84.1c-11.7,0-23.4,0-35.1,0c0-50.3,0-100.6,0-150.9
		c10.7,0,21.5,0,32.2,0c0,2.9-0.1,5.8,0.1,8.7C1338.1,59.4,1340.1,56.9,1342.8,55.3z"/>
	<g>
		<path class="st0" d="M1536.8,54.3c9.2-3.1,18.9-3.8,28.6-3.8c8.7,0.3,17.6,1.2,25.6,4.8c4.9,2.2,9.4,5.4,12.5,9.8
			c5.4,7.8,7.6,17.3,8.7,26.6c1.1,8.2,0.6,16.5,0.7,24.8c-0.1,9.6,0.1,19.2-0.2,28.9c-22.7,0.1-45.4,0-68.1,0.1
			c0.7,7.1,0.9,14.7,4.7,20.9c4.3,4.3,11.1,4.1,16.8,4.6c11.6,0.2,23.1-1.7,34.3-4.8c0,11.7,0,23.5,0,35.2
			c-9.4,2.1-19.1,3.3-28.7,3.8c-9.6,0.3-19.3,1.1-28.7-1.1c-9.1-2-17.9-6.9-23.4-14.5c-4-5.7-5.9-12.4-7.4-19.1
			c-3.9-18.8-3.7-38.1-3.3-57.1c0.6-11.1,1.6-22.3,4.5-33c1.5-5.2,3.4-10.4,6.7-14.7C1524.3,60.2,1530.3,56.5,1536.8,54.3z
			 M1557.5,84.7c-4.4,0.7-9,3.4-10.4,7.9c-2.6,7.8-2.6,16.1-2.9,24.2c11,0,22,0,33,0c0.1-6.6-0.2-13.2-1.4-19.7
			c-0.6-2.9-1.2-6.1-3.3-8.4C1568.8,84.5,1562.7,83.6,1557.5,84.7z"/>
	</g>
	<path class="st0" d="M414.1,53c11.9,0,23.8,0,35.7,0c0.1,33.5,0,67.1,0.1,100.6c0.4,5.2,0,11.3,3.8,15.4c5.3,3.4,12.2,3.2,18.2,2.4
		c3.2-0.6,7-1.7,8.3-5.1c2.7-6.6,2.2-14,2.3-21c0-30.8,0-61.6,0-92.4c11.7,0,23.4,0,35,0c0,50.3,0,100.6,0,150.9
		c-10.7,0-21.4,0-32.2,0c0-3.1,0.1-6.3-0.1-9.4c-2.4,2.5-4.7,5.3-7.8,7c-7.7,4.3-16.9,4.5-25.5,4c-9.6-0.8-19.3-3.5-26.9-9.5
		c-5.5-4.8-7.9-12.1-9.3-19c-2.2-10.7-1.5-21.6-1.6-32.4C414.1,114,414.1,83.5,414.1,53z"/>
	<path class="st0" d="M841.9,53c11.9,0,23.9,0,35.8,0c0,50.3,0,100.6,0,150.9c-11.9,0-23.9,0-35.8,0
		C841.9,153.6,841.9,103.3,841.9,53z"/>
	<path class="st0" d="M1633.9,53c12,0,23.9,0,35.9,0c0.1,71.9,0,143.9,0,215.8c-11.9,0-23.7,0-35.6,0c-0.2-23.8,0.4-47.6-0.3-71.4
		C1634,149.2,1634,101.1,1633.9,53z"/>
	<path class="st0" d="M230.2,87.6c3.8-5.6,6.4-11.9,9.6-17.8c9,14,14.9,29.8,18,46.1c0.5,3.3,1.2,6.6,1,10
		c-14.6,10.4-30.5,19.3-47.9,24.1c-0.6-5.1-0.9-10.2-1.2-15.4c-1.1-4.7-0.2-9.6-1.3-14.4c-0.2-1.8-1.1-4.2,0.7-5.6
		C217.2,106.5,224.4,97.5,230.2,87.6z"/>
	<path class="st0" d="M12.8,83.1c11.5-0.3,23.1-0.6,34.6,0.1c5.8,1,11.6,1.9,17.3,3.2c-4.5,10.1-9.4,19.9-14.2,29.9
		c-0.6,1.8-2.8,1.8-4.3,2.5c-16.6,4.7-32,13-46.2,22.7C-0.2,121.4,3.9,101.2,12.8,83.1z"/>
	<path class="st0" d="M143.9,105.4c4.7-5.6,12.2-7.6,19.2-7.9c7.7-0.3,16.4,0.4,22.5,5.7c5.6,4.8,7.3,12.4,8.2,19.4
		c-6.6,0.1-13.1,0.8-19.7,1.3c-0.7-2.8-1.2-5.8-3.1-8c-2.8-2.7-7.4-3.7-10.9-1.7c-2.3,1.5-3.7,4.9-2.3,7.4c2.3,3.3,6.6,3.7,10.2,4.9
		c8.5,2.5,17.9,5.3,23.4,12.9c8,12.3,4.9,30.8-7.3,39.2c-5.2,3.4-11.5,4.6-17.7,4.3c-7.6,0.3-15.8-0.9-21.7-6
		c-6-6-8.6-14.6-9.3-22.8c6.6-0.8,13.2-0.9,19.7-1.7c0.8,4,1.3,8.5,4.5,11.3c3.9,4.1,11.8,3.8,14.7-1.3c2.6-3.9,0.5-9.5-3.6-11.5
		c-6-3.1-12.9-3.7-18.7-7c-5.5-2.4-10.2-6.8-12.5-12.4C136.5,122.9,137.8,112.5,143.9,105.4z"/>
	<path class="st0" d="M110.4,98.7c7.6,0.1,15.2,0,22.8,0.1c-7.3,14.4-15.2,28.5-22.7,42.7c-1.2,2.5-3.3,5-3.1,8
		c0,10.8,0,21.5,0,32.2c-6.9,0-13.8,0-20.7,0c0-10.8,0-21.5,0-32.2c0.3-2.6-1.4-4.7-2.6-6.9c-7.8-14.6-15.6-29.2-23.4-43.7
		c7.7-0.3,15.4-0.1,23.1-0.1c4.7,9,8.6,18.4,13.4,27.4C101.5,116.9,105.8,107.7,110.4,98.7z"/>
	<path class="st0" d="M0.7,149.5c14.3-10.2,30-18.7,47-23.6c0.2,3.5,1.2,6.9,1.1,10.4c-0.3,4.5,1.1,8.8,0.9,13.3
		c-0.1,3.7,1.1,7.4,0.7,11.1c-13.1,13.2-23.5,28.8-31.2,45.7C8.8,189.1,2,169.5,0.7,149.5z"/>
	<path class="st0" d="M247.4,141.8c4.3-2.6,8.4-5.6,12.8-8.1c0.7,7.8-0.8,15.5-1.6,23.2c-1.9,12.4-5.2,24.6-10.7,35.9
		c-6.6,1.4-13.5,0.7-20.3,1.1c-6.6-0.3-13.3,0-19.8-1.3c-4.8-0.5-9.4-1.7-14.1-2.6c1.1-3.5,2.9-6.6,4.4-9.8
		c3.3-6.9,6.6-13.8,9.9-20.7c0.5-1.6,2.5-1.7,3.9-2.2C224.5,153.9,236.2,148.3,247.4,141.8z"/>
	<path class="st0" d="M27.5,203.9c6.5-13.1,14.9-25.3,25.1-35.9c6.4,8.9,12.4,18.1,18.7,27.1c1.4,1.7,0.7,3.9,0.3,5.9
		c-1.6,6.7-3.2,13.5-3.3,20.4c-1.4,10.4-1.2,21,0.1,31.4c-14-7.1-26.2-17.4-36.6-29.1c-2.9-3.5-6-6.9-8.2-10.8
		C24,209.6,26.1,206.8,27.5,203.9z"/>
	<path class="st0" d="M181.2,199.6c2.2-1.5,4.3-3.2,6.8-4.3c8.9,1.7,17.7,4.2,26.9,4.1c7,1.3,14.1,0.8,21.1,0.7
		c2.9-0.5,5.9-0.9,8.8-0.9c-9.3,17.8-22.9,33.3-39.3,45c-16.7-7.3-32.6-17-45.7-29.8C166.7,209.2,174.1,204.7,181.2,199.6z"/>
	<path class="st0" d="M77.9,202.3c8.5,3.5,16.5,8.1,24.9,11.7c2.3,1.2,5,1.9,6.9,3.8c3.5,12.8,8.7,25.2,15.5,36.6
		c2.8,4.9,6.1,9.5,9.1,14.3c-6.8,0.7-13.6-0.6-20.4-1.1c-12.1-1.5-24-4.8-35.2-9.6c-1.4-0.7-3.1-1.2-4.1-2.5
		c-0.8-3.8,0.1-7.9-0.7-11.7c-1.1-7.4,0.6-14.8,0.4-22.3C75.3,215,76.4,208.6,77.9,202.3z"/>
	<path class="st0" d="M132.6,217.9c6.4,0.1,12.6-1.4,19-1.1c13.5,13.4,29.6,24.3,47.1,31.9c-17.1,10.8-36.9,17.6-57.1,19.2
		c-10.7-14.8-19.8-31-24.5-48.7C122.3,218.8,127.5,218.6,132.6,217.9z"/>
	<path class="st0" d="M366.6,224.7c4.5-0.8,9-1.6,13.5-2.3c0,4.5-0.1,9-0.2,13.5c6-3.3,13.3-2.5,19.6-0.5c3.9,1.1,5.4,5.3,5.4,8.9
		c0.1,8.1,0,16.2,0,24.3c-4.5,0-9,0-13.5,0c0-7.5,0-15.1,0-22.6c-0.1-1.4-0.2-3.5-1.9-3.9c-2.9-0.7-6.2-0.8-8.9,0.5
		c-1,1.5-0.8,3.3-0.8,5c0,7,0,14,0,21c-4.4,0-8.8,0-13.2,0C366.6,254,366.6,239.4,366.6,224.7z"/>
	<path class="st0" d="M525.4,224.8c4.5-0.8,9-1.6,13.5-2.3c0,4.5,0.1,9,0,13.5c5.9-3.2,13.3-2.5,19.5-0.5c3.5,1,5.4,4.7,5.4,8.1
		c0,8.4,0,16.7,0,25.1c-4.5,0-8.9,0-13.4,0c0-7.5,0-15.1,0-22.6c-0.1-1.3-0.1-3.1-1.5-3.7c-2.7-0.8-5.6-0.8-8.3-0.1
		c-1.8,0.3-1.7,2.4-1.8,3.8c-0.1,7.5,0,15.1,0,22.6c-4.4,0-8.9,0-13.3,0C525.4,254,525.4,239.4,525.4,224.8z"/>
	<path class="st0" d="M618.7,225.5c4.5-0.9,9-1.7,13.5-2.5c0,3.8,0,7.5,0,11.3c2.4,0,4.7,0,7.1,0c0,2.1,0,4.2,0,6.4
		c-2.4,0-4.7,0-7.1,0c0,5.4,0,10.8-0.1,16.1c-0.1,1.5,0.4,3.2,1.9,3.7c2.3,1,4.7-0.8,6.8-1.5c0,2.9,0,5.8,0,8.7
		c-5.3,1-11,2.2-16.1,0.2c-3.6-1.4-5.8-5-6-8.7c-0.2-6.2,0-12.4-0.1-18.6c-1.4,0-2.8,0-4.2,0c0-2.1,0-4.2,0-6.3c1.4,0,2.8,0,4.2,0
		C618.7,231.4,618.7,228.5,618.7,225.5z"/>
	<path class="st0" d="M857.2,224.7c4.5-0.8,9-1.6,13.5-2.3c0.1,4.5-0.1,9,0,13.4c6-3.2,13.4-2.5,19.7-0.3c3.7,1.2,5.2,5.3,5.2,8.9
		c0,8.1,0,16.2,0,24.3c-4.5,0-9,0-13.5,0c0-7.5,0-15.1,0-22.6c-0.1-1.4-0.1-3.3-1.7-3.8c-2.5-0.8-5.2-0.7-7.7-0.2
		c-1.9,0.2-2.2,2.4-2.2,3.9c-0.1,7.6,0.1,15.1-0.1,22.7c-4.4,0-8.8,0-13.1,0C857.2,254,857.2,239.4,857.2,224.7z"/>
	<path class="st0" d="M318.7,224.7c13.7,0,27.4,0,41.1,0c0,2.7,0,5.4,0,8.1c-4.4,0-8.8,0-13.2,0c0,11.9,0,23.9,0,35.8
		c-4.7,0-9.4,0-14.2,0c-0.1-11.9,0-23.9-0.1-35.9c-4.5,0-9.1,0-13.6,0C318.6,230.1,318.6,227.4,318.7,224.7z"/>
	<g>
		<path class="st0" d="M479.2,224.7c7.4,0,14.7,0,22.1,0c4.7,0.2,9.9,0.5,13.8,3.4c4,3.2,4.7,8.9,3.9,13.6c-0.5,3.4-2.7,6.5-5.9,8
			c-6.4,3.1-13.7,1.9-20.6,2.2c0,5.6,0,11.2,0,16.8c-4.5,0-8.9,0-13.4,0C479.2,254,479.2,239.4,479.2,224.7z M492.6,232.9
			c0,3.7,0,7.4,0,11.2c3.7-0.1,7.4,0.4,11-0.4c4.7-1.2,4.7-9.2,0-10.4C500,232.5,496.3,233,492.6,232.9z"/>
	</g>
	<g>
		<path class="st0" d="M722.4,230.7c3.5-1.6,7.4-1.5,11.2-1.5c0,1.8,0,3.6,0,5.3c-2.6,0-5.3,0-7.8,0.6c3.8,4.6,3.8,10.9,3.2,16.5
			c-0.4,2.9-1.5,6.4-4.6,7.4c-6.2,2.2-12.8,1.6-19.3,1.5c0,0.8,0,2.4,0,3.3c7.5,0.2,15.1-0.6,22.4,1.4c2.9,0.7,4.2,3.7,4.4,6.4
			c0.2,3.2,0.3,6.9-2.2,9.3c-2.9,2.1-6.7,1.9-10.1,2.3c-9.4,0.2-19,0.9-28.1-1.6c0-2.6,0-5.1,0-7.7c5.4,1.2,11,1.7,16.5,1.5
			c3.9-0.1,8,0.6,11.7-1.2c0-0.7,0-2,0-2.7c-7.5-3.1-16,0.2-23.5-2.7c-2.4-1.1-2.1-4.1-2.2-6.3c2.5-0.7,5-1.4,7.5-2
			c-3.5-0.8-8-1-10-4.5c-2.2-4-2-8.7-1.5-13.1c0.3-3.3,2.1-7,5.7-7.7c8-2,16.5-1.5,24.7-1C720.8,233,720.8,231.2,722.4,230.7z
			 M706.7,241.6c-2.9-0.1-3.8,3-3.7,5.3c0,2,0.1,5.1,2.7,5.5c3,0.5,6.2,0.7,9-0.5c1.5-2.8,1.5-6.5,0.1-9.4
			C712.5,241,709.4,241.4,706.7,241.6z"/>
	</g>
	<g>
		<path class="st0" d="M417.7,236.1c5.7-2.6,12.2-2.4,18.4-2.2c4.5,0.4,10,1,12.5,5.3c2.7,4.9,1.5,10.8,1.7,16.2
			c-8.4,0.1-16.7-0.1-25.1,0.1c0.6,1.8,0.8,4.4,3.1,4.8c5.8,1.1,11.7,0.2,17.4-0.6c0,2.8,0,5.5,0,8.3c-6.7,0.8-13.5,1.1-20.2,0.7
			c-4.6-0.5-10.1-2-12-6.7c-2.1-5.2-2-11.1-1.3-16.6C412.6,241.8,414.1,237.7,417.7,236.1z M428,242.2c-2.7,0.8-2.5,4.2-2.9,6.4
			c4,0,8,0,12,0c-0.3-1.9-0.2-3.9-1.2-5.6C433.7,241.3,430.5,241.5,428,242.2z"/>
	</g>
	<g>
		<path class="st0" d="M582.7,234.3c6.9-0.8,14.2-1.1,20.8,1.4c4.7,1.9,5.2,7.7,5.6,12c0.1,5.7,0.5,12.2-3,17.1
			c-3.3,3.4-8.5,3.7-13,3.9c-5.7,0.2-11.8,0.3-16.9-2.5c-4-2.2-5-7.1-5.3-11.2c-0.2-5.1-0.4-10.6,1.9-15.3
			C574.6,236.2,578.9,234.9,582.7,234.3z M586.8,242.3c-2.6,0.8-2.3,4.1-2.6,6.2c0,3.6-0.6,7.6,1.2,10.9c2.5,1.9,6.9,2.1,9.2-0.2
			c1.6-4.4,1.1-9.3,0.7-13.8C595.1,241.3,589.7,241.2,586.8,242.3z"/>
	</g>
	<g>
		<path class="st0" d="M657.9,234.3c5.4-0.7,11-0.7,16.4,0.2c3.2,0.6,6.8,1.8,8.1,5c2.1,4.9,1.9,10.4,1.7,15.7
			c-0.3,3.7-0.8,7.8-3.6,10.4c-4.1,3.1-9.6,3.1-14.5,3.3c-5.3,0-11.1-0.1-15.6-3.2c-3.5-2.6-4.2-7.3-4.5-11.4
			c-0.2-4.9-0.2-10.2,2.1-14.7C649.7,236,654.1,234.9,657.9,234.3z M662,242.2c-2.4,0.6-2.5,3.5-2.7,5.4c-0.1,3.6-0.4,7.3,0.7,10.7
			c0.5,1.9,2.8,2.2,4.4,2.4c2.2,0.1,5.4-0.2,5.8-2.9c0.8-4.6,1-9.6-0.2-14.1C668.4,241.2,664.5,241.5,662,242.2z"/>
	</g>
	<path class="st0" d="M751.6,235.2c3-0.8,6-1.5,9.1-1.5c0.1,3,0,5.9,0.1,8.9c-3-1.2-7.7-1.7-8.9,2.1c-0.4,8,0,16-0.2,24
		c-4.4,0-8.8,0-13.2,0c0-11.4,0-22.9,0-34.3C742.9,234.5,747.4,233.8,751.6,235.2z"/>
	<g>
		<path class="st0" d="M772.1,234.7c8.5-0.9,17.5-1.9,25.7,1c4,1.3,6,5.6,6,9.5c0.1,7.8,0,15.7,0,23.5c-4-0.4-8.8,1.3-11.9-2
			c-2.7,1.5-5.7,2.3-8.7,2.2c-4.9,0.1-10.2,0-14.5-2.5c-3.5-2.5-3.4-7.4-3.2-11.2c0.2-3.5,2.2-6.9,5.6-8c6.3-2.5,13.2-1.6,19.7-1.1
			c-0.6-1.5-1.2-3.3-3-3.6c-5.2-1.2-10.6-0.6-15.7,0.3C772.1,240.1,772.1,237.4,772.1,234.7z M781.4,252.6c-3.4,1.2-3.7,7.7,0.4,8
			c2.7,0.4,6.2,1,8.3-1.1c0.6-2.4,0.2-5,0.2-7.5C787.3,251.9,784.2,251.5,781.4,252.6z"/>
	</g>
	<g>
		<path class="st0" d="M908.7,236c5.8-2.5,12.3-2.3,18.4-2.1c4.5,0.4,10,1.1,12.4,5.5c2.5,4.9,1.3,10.7,1.5,16
			c-8.3,0.1-16.7,0-25,0.1c0.5,1.8,0.8,4.5,3.2,4.9c5.7,1,11.6,0.2,17.3-0.6c0,2.7,0,5.5,0,8.2c-6.6,0.9-13.4,1.1-20,0.7
			c-4.6-0.5-10.1-1.9-12.1-6.5c-2.1-5-2-10.6-1.5-15.9C903.2,242.3,904.6,237.7,908.7,236z M918.4,242.4c-2.4,1-2.1,4.2-2.6,6.3
			c4,0,8,0,12,0c-0.4-2-0.1-4.3-1.6-5.8C923.9,241.4,920.9,241.5,918.4,242.4z"/>
	</g>
	<path class="st0" d="M961.6,235.1c2.9-0.8,5.8-1.4,8.8-1.4c0.1,2.9,0,5.9,0.1,8.8c-2.2-0.4-4.5-1.5-6.7-0.3
		c-1.8,0.8-2.4,2.9-2.4,4.7c-0.1,7.3,0.1,14.6-0.1,21.8c-4.4,0-8.7,0-13.1,0c0-11.4,0-22.9,0-34.3
		C952.7,234.5,957.3,233.9,961.6,235.1z"/>
	<g>
		<path class="st0" d="M812.2,234.4c3.3,0,6.7,0,10-0.1c0.6,0.7,1.1,1.3,1.7,2c6-3.2,13.6-3,19.7-0.3c4.7,1.9,6.1,7.2,6.4,11.8
			c0.2,5.1,0.4,10.6-1.9,15.3c-1.6,3.2-5.2,4.7-8.5,5.5c-4.7,1-9.9,0.9-14.2-1.5c0.1,5.2,0,10.5,0,15.7c-4.5,0-8.9,0-13.4,0
			C812.1,266.7,812.1,250.5,812.2,234.4z M825.4,243.8c-0.2,5.4-0.1,10.7-0.1,16.1c3.1,1.3,7,2.1,9.9,0.1c1.7-2,1.3-4.8,1.6-7.3
			c-0.1-3,0.3-6.4-1.4-9.1C832.5,241.2,828.3,242.1,825.4,243.8z"/>
	</g>
</g>
</svg>
